<svg xmlns="http://www.w3.org/2000/svg" width="105" height="110" viewBox="0 0 105 110">
    <g fill="none" fill-rule="evenodd">
        <g transform="translate(27 11)">
            <rect width="41" height="69" x="5" y="10" stroke="#034045" rx="4"/>
            <path stroke="#034045" stroke-width="2" d="M0 7.083V78.95c1.834.839 3.167 2.012 4 3.52.833 1.507 1.166 3.35 1 5.531l6-1.509L16.5 88l4.5-1.509L26.5 88l6-1.509L36 88l3.5-1.509L46 88c-.319-1.705.014-3.549 1-5.531.986-1.983 2.319-3.156 4-3.52V7.083c-1.593-.636-2.76-1.48-3.5-2.529C46.76 3.505 46.26 1.987 46 0l-6.5 1.006L35 0l-4 1.006L26.5 0 21 1.006 15 0l-5 1.006L5 0c-.06 2.172-.393 3.68-1 4.526-.607.845-1.94 1.697-4 2.557z"/>
            <path fill="#034045" fill-rule="nonzero" d="M27.338 60v-2.574c1.197-.073 2.306-.28 3.327-.62 1.022-.341 1.937-.825 2.747-1.452.81-.626 1.444-1.439 1.901-2.437.458-.998.687-2.135.687-3.413 0-.73-.094-1.409-.282-2.036-.187-.626-.42-1.171-.695-1.633-.276-.463-.654-.901-1.136-1.315-.48-.414-.933-.751-1.355-1.013-.423-.262-.957-.532-1.602-.812-.646-.28-1.189-.496-1.629-.648-.44-.152-1-.332-1.681-.539-.035-.012-.085-.027-.15-.045-.064-.019-.108-.034-.132-.046v-6.48c1.901.353 3.04 1.576 3.416 3.669l5.088-1.314c-.294-1.437-.875-2.66-1.743-3.67-.869-1.01-1.867-1.761-2.993-2.254-1.127-.493-2.383-.806-3.768-.94V28h-1.954v2.355c-2.512.097-4.557.824-6.136 2.181-1.578 1.357-2.368 3.198-2.368 5.522 0 .67.082 1.293.247 1.871.164.578.37 1.083.616 1.515.246.432.584.837 1.012 1.214.429.378.837.694 1.224.95.387.255.877.51 1.47.766s1.103.46 1.532.612c.428.152.965.331 1.61.538l.388.119c.176.055.31.1.405.137v7.1c-1.08-.206-1.97-.68-2.667-1.423-.699-.742-1.118-1.728-1.26-2.957L16 49.814c.352 2.251 1.38 4.043 3.081 5.376 1.702 1.333 3.803 2.078 6.303 2.236V60h1.954zm-1.954-19.204c-1.033-.365-1.82-.763-2.36-1.195-.54-.432-.81-.99-.81-1.67 0-.913.291-1.622.872-2.127.581-.505 1.347-.819 2.298-.94v5.932zm1.954 12.158v-6.499c1.033.402 1.822.858 2.368 1.37.546.51.825 1.168.836 1.97.012.95-.273 1.686-.854 2.21-.58.523-1.364.84-2.35.949z"/>
            <path stroke="#034045" d="M5 69.5L46 69.5M5 18.5L46 18.5"/>
        </g>
        <path d="M0 0H105V110H0z"/>
    </g>
</svg>
