<svg xmlns="http://www.w3.org/2000/svg" width="105" height="110" viewBox="0 0 105 110">
    <g fill="none" fill-rule="evenodd">
        <path d="M0 0H105V110H0z"/>
        <g transform="rotate(-15 80.777 -53.043)">
            <path fill="#F6BD56" d="M0 7.043V78.5c1.834.835 3.167 2.001 4 3.5.833 1.499 1.166 3.332 1 5.5l6-1.5 5.5 1.5L21 86l5.5 1.5 6-1.5 3.5 1.5 3.5-1.5 6.5 1.5c-.319-1.695.014-3.529 1-5.5s2.319-3.138 4-3.5V7.043c-1.593-.633-2.76-1.471-3.5-2.514C46.76 3.485 46.26 1.976 46 0l-6.5 1L35 0l-4 1-4.5-1L21 1l-6-1-5 1-5-1c-.06 2.16-.393 3.66-1 4.5-.607.84-1.94 1.688-4 2.543z"/>
            <rect width="41" height="69" x="5" y="9.5" fill="#FFE5B8" rx="4"/>
            <path fill="#CA7B51" fill-rule="nonzero" d="M26.254 58.313v-2.479c1.195-.07 2.303-.27 3.322-.598 1.02-.328 1.934-.794 2.742-1.397.809-.604 1.442-1.386 1.899-2.347.457-.96.685-2.056.685-3.287 0-.703-.093-1.356-.28-1.96-.188-.603-.42-1.128-.695-1.573-.276-.445-.654-.867-1.134-1.266-.48-.398-.932-.723-1.354-.975-.421-.252-.955-.513-1.6-.783-.644-.27-1.186-.477-1.625-.624-.44-.146-1-.319-1.679-.518-.035-.012-.085-.027-.15-.044-.064-.018-.108-.032-.131-.044v-6.24c1.898.34 3.035 1.517 3.41 3.533l5.08-1.266c-.293-1.383-.873-2.56-1.74-3.533-.867-.973-1.863-1.696-2.988-2.17-1.125-.475-2.38-.777-3.762-.906v-2.338h-1.951v2.268c-2.508.093-4.55.794-6.126 2.1-1.576 1.307-2.364 3.08-2.364 5.318 0 .644.082 1.245.246 1.801.164.557.369 1.043.615 1.46.246.415.583.805 1.01 1.168.428.364.836.668 1.222.914.387.246.876.493 1.468.739s1.102.442 1.53.588c.427.147.963.32 1.608.519.082.023.21.062.386.114.176.053.311.097.405.132v6.838c-1.078-.2-1.966-.656-2.663-1.371-.698-.715-1.117-1.664-1.257-2.848l-5.45 1.266c.352 2.168 1.378 3.893 3.077 5.177 1.699 1.283 3.797 2 6.293 2.153v2.478h1.95zM24.303 39.82c-1.032-.351-1.817-.735-2.356-1.151-.539-.416-.808-.952-.808-1.608 0-.88.29-1.562.87-2.048.58-.487 1.345-.788 2.294-.906v5.713zm1.95 11.707V45.27c1.032.386 1.82.826 2.365 1.318.545.492.823 1.125.835 1.898.012.914-.272 1.623-.852 2.127-.58.504-1.363.809-2.347.914z"/>
            <path stroke="#C8794F" d="M5 69.5L46 69.5M5 18.5L46 18.5"/>
        </g>
    </g>
</svg>
