<svg xmlns="http://www.w3.org/2000/svg" width="105" height="110" viewBox="0 0 105 110">
    <g fill="none" fill-rule="evenodd">
        <path d="M0 0H105V110H0z"/>
        <g transform="rotate(13 -74.376 76.108)">
            <rect width="89" height="54" fill="#F69D8C" rx="6"/>
            <path fill="#F5F3F1" d="M0 10H89V22H0z"/>
            <path fill="#F5F3F1" fill-rule="nonzero" d="M67.216 39.5v-7.056h-1.338l-1.685 1.51v1.444l1.621-1.508v5.61h1.402zm7.305 0v-1.255h-3.008l1.909-1.968c.322-.335.557-.65.705-.942.149-.293.223-.615.223-.967 0-.631-.22-1.128-.657-1.49-.438-.36-1.005-.541-1.702-.541-.735 0-1.318.2-1.748.598-.43.399-.644.964-.644 1.697v.351l1.401.142v-.522c0-.759.334-1.138 1.001-1.138.306 0 .543.08.71.24.168.159.252.377.252.653 0 .4-.204.806-.61 1.216l-2.808 2.866v1.06h4.976zm3.481.098c.771 0 1.39-.2 1.855-.598.466-.4.699-.93.699-1.595 0-.25-.036-.478-.108-.683-.071-.205-.168-.376-.29-.513-.122-.137-.253-.249-.393-.337-.14-.088-.29-.155-.45-.2.232-.104.437-.283.618-.537.18-.254.271-.557.271-.908 0-.534-.211-.981-.635-1.34-.423-.36-.96-.54-1.611-.54-.716 0-1.276.196-1.68.588-.403.392-.605.958-.605 1.697l1.42.068c0-.127.006-.24.018-.342.011-.1.036-.203.073-.307.038-.104.088-.19.151-.259.064-.068.15-.125.257-.168.107-.044.234-.066.38-.066.277 0 .5.068.67.205.169.136.254.332.254.586 0 .254-.078.464-.232.63-.155.166-.35.249-.584.249h-.254v1.093h.274c.312 0 .561.087.747.262.185.174.278.428.278.764 0 .306-.097.553-.29.742-.194.189-.472.283-.833.283-.186 0-.344-.021-.476-.063-.132-.043-.238-.1-.318-.174-.08-.073-.141-.173-.185-.3-.044-.127-.073-.26-.088-.4s-.022-.313-.022-.518l-1.44.063c0 .886.201 1.543.605 1.973.404.43 1.045.645 1.924.645z"/>
            <path fill="#F6BD56" d="M8 32H59V40H8z"/>
        </g>
    </g>
</svg>
